<svg xmlns="http://www.w3.org/2000/svg" xmlns:xlink="http://www.w3.org/1999/xlink" width="302pt" height="1012pt" viewBox="0.00 0.00 302.00 1012.00">
<g id="graph0" class="graph" transform="scale(1 1) rotate(0) translate(4 1008.4)">
<title>main_graph</title>
<polygon fill="#fafafa" stroke="none" points="-4,4 -4,-1008.4 298.46,-1008.4 298.46,4 -4,4"/>
<!-- input_input -->
<g id="node1" class="node">
<title>input_input</title>
<polygon fill="#85c1e9" stroke="black" points="89.32,-948.3 89.32,-1003.9 164.64,-1003.9 164.64,-948.3 89.32,-948.3"/>
<text xml:space="preserve" text-anchor="middle" x="126.98" y="-990" font-family="Helvetica,sans-Serif" font-size="11.00">INPUT</text>
<polyline fill="none" stroke="black" points="89.32,-982.7 164.64,-982.7"/>
<text xml:space="preserve" text-anchor="middle" x="126.98" y="-968.8" font-family="Helvetica,sans-Serif" font-size="11.00">input</text>
<text xml:space="preserve" text-anchor="middle" x="126.98" y="-955.6" font-family="Helvetica,sans-Serif" font-size="11.00">[?x1x28x28]</text>
</g>
<!-- node_Shape_0 -->
<g id="node3" class="node">
<title>node_Shape_0</title>
<polygon fill="#e8e8e8" stroke="black" points="0,-788.1 0,-856.9 97.96,-856.9 97.96,-788.1 0,-788.1"/>
<text xml:space="preserve" text-anchor="middle" x="48.98" y="-843" font-family="Helvetica,sans-Serif" font-size="11.00">Shape</text>
<text xml:space="preserve" text-anchor="middle" x="48.98" y="-829.8" font-family="Helvetica,sans-Serif" font-size="11.00">(node_Shape_0)</text>
<polyline fill="none" stroke="black" points="0,-822.5 97.96,-822.5"/>
<text xml:space="preserve" text-anchor="start" x="8" y="-808.6" font-family="Helvetica,sans-Serif" font-size="11.00">start=0</text>
<text xml:space="preserve" text-anchor="start" x="8" y="-795.4" font-family="Helvetica,sans-Serif" font-size="11.00">end=1</text>
</g>
<!-- input_input&#45;&gt;node_Shape_0 -->
<g id="edge1" class="edge">
<title>input_input-&gt;node_Shape_0</title>
<path fill="none" stroke="black" d="M113.03,-948C101.51,-925.59 84.91,-893.34 71.5,-867.28"/>
<polygon fill="black" stroke="black" points="74.73,-865.9 67.04,-858.61 68.51,-869.1 74.73,-865.9"/>
<text xml:space="preserve" text-anchor="middle" x="126.02" y="-921.7" font-family="Helvetica,sans-Serif" font-size="9.00">[?x1x28x28]</text>
</g>
<!-- node_conv2d -->
<g id="node4" class="node">
<title>node_conv2d</title>
<polygon fill="#aed6f1" stroke="black" points="115.49,-744.5 115.49,-900.5 294.46,-900.5 294.46,-744.5 115.49,-744.5"/>
<text xml:space="preserve" text-anchor="middle" x="204.98" y="-886.6" font-family="Helvetica,sans-Serif" font-size="11.00">Conv</text>
<text xml:space="preserve" text-anchor="middle" x="204.98" y="-873.4" font-family="Helvetica,sans-Serif" font-size="11.00">(node_conv2d)</text>
<polyline fill="none" stroke="black" points="115.49,-866.1 294.46,-866.1"/>
<text xml:space="preserve" text-anchor="start" x="123.49" y="-852.2" font-family="Helvetica,sans-Serif" font-size="11.00">dilations=[1,1]</text>
<text xml:space="preserve" text-anchor="start" x="123.49" y="-839" font-family="Helvetica,sans-Serif" font-size="11.00">auto_pad="NOTSET"</text>
<text xml:space="preserve" text-anchor="start" x="123.49" y="-825.8" font-family="Helvetica,sans-Serif" font-size="11.00">pads=[1,1,1,1]</text>
<text xml:space="preserve" text-anchor="start" x="123.49" y="-812.6" font-family="Helvetica,sans-Serif" font-size="11.00">strides=[1,1]</text>
<text xml:space="preserve" text-anchor="start" x="123.49" y="-799.4" font-family="Helvetica,sans-Serif" font-size="11.00">group=1</text>
<polyline fill="none" stroke="black" points="115.49,-792.1 294.46,-792.1"/>
<text xml:space="preserve" text-anchor="start" x="123.49" y="-778.2" font-family="Helvetica,sans-Serif" font-size="11.00">const inputs:</text>
<text xml:space="preserve" text-anchor="start" x="123.49" y="-765" font-family="Helvetica,sans-Serif" font-size="11.00">conv1.weight = float32[32x1x3x3]</text>
<text xml:space="preserve" text-anchor="start" x="123.49" y="-751.8" font-family="Helvetica,sans-Serif" font-size="11.00">conv1.bias = float32[32]</text>
</g>
<!-- input_input&#45;&gt;node_conv2d -->
<g id="edge2" class="edge">
<title>input_input-&gt;node_conv2d</title>
<path fill="none" stroke="black" d="M143.66,-948.02C147.17,-942.07 150.78,-935.77 153.98,-929.8 157.25,-923.7 160.55,-917.36 163.8,-910.95"/>
<polygon fill="black" stroke="black" points="166.84,-912.7 168.2,-902.19 160.59,-909.56 166.84,-912.7"/>
<text xml:space="preserve" text-anchor="middle" x="182.71" y="-921.7" font-family="Helvetica,sans-Serif" font-size="9.00">[?x1x28x28]</text>
</g>
<!-- output_output -->
<g id="node2" class="node">
<title>output_output</title>
<polygon fill="#82e0aa" stroke="black" points="93.37,-0.5 93.37,-56.1 154.59,-56.1 154.59,-0.5 93.37,-0.5"/>
<text xml:space="preserve" text-anchor="middle" x="123.98" y="-42.2" font-family="Helvetica,sans-Serif" font-size="11.00">OUTPUT</text>
<polyline fill="none" stroke="black" points="93.37,-34.9 154.59,-34.9"/>
<text xml:space="preserve" text-anchor="middle" x="123.98" y="-21" font-family="Helvetica,sans-Serif" font-size="11.00">output</text>
<text xml:space="preserve" text-anchor="middle" x="123.98" y="-7.8" font-family="Helvetica,sans-Serif" font-size="11.00">[?x10]</text>
</g>
<!-- node_Concat_4 -->
<g id="node7" class="node">
<title>node_Concat_4</title>
<polygon fill="#e8e8e8" stroke="black" points="23.48,-551.7 23.48,-641.7 124.48,-641.7 124.48,-551.7 23.48,-551.7"/>
<text xml:space="preserve" text-anchor="middle" x="73.98" y="-627.8" font-family="Helvetica,sans-Serif" font-size="11.00">Concat</text>
<text xml:space="preserve" text-anchor="middle" x="73.98" y="-614.6" font-family="Helvetica,sans-Serif" font-size="11.00">(node_Concat_4)</text>
<polyline fill="none" stroke="black" points="23.48,-607.3 124.48,-607.3"/>
<text xml:space="preserve" text-anchor="start" x="31.48" y="-593.4" font-family="Helvetica,sans-Serif" font-size="11.00">axis=0</text>
<polyline fill="none" stroke="black" points="23.48,-586.1 124.48,-586.1"/>
<text xml:space="preserve" text-anchor="start" x="31.48" y="-572.2" font-family="Helvetica,sans-Serif" font-size="11.00">const inputs:</text>
<text xml:space="preserve" text-anchor="start" x="31.48" y="-559" font-family="Helvetica,sans-Serif" font-size="11.00">val_4 = int64[1]</text>
</g>
<!-- node_Shape_0&#45;&gt;node_Concat_4 -->
<g id="edge3" class="edge">
<title>node_Shape_0-&gt;node_Concat_4</title>
<path fill="none" stroke="black" d="M52.72,-787.99C56.7,-752.36 63.06,-695.42 67.79,-653.1"/>
<polygon fill="black" stroke="black" points="71.25,-653.68 68.88,-643.36 64.29,-652.91 71.25,-653.68"/>
<text xml:space="preserve" text-anchor="middle" x="65.41" y="-717.9" font-family="Helvetica,sans-Serif" font-size="9.00">[1]</text>
</g>
<!-- node_relu -->
<g id="node5" class="node">
<title>node_relu</title>
<polygon fill="#a9dfbf" stroke="black" points="166.85,-660.7 166.85,-696.7 239.11,-696.7 239.11,-660.7 166.85,-660.7"/>
<text xml:space="preserve" text-anchor="middle" x="202.98" y="-682.3" font-family="Helvetica,sans-Serif" font-size="11.00">Relu</text>
<text xml:space="preserve" text-anchor="middle" x="202.98" y="-669.1" font-family="Helvetica,sans-Serif" font-size="11.00">(node_relu)</text>
</g>
<!-- node_conv2d&#45;&gt;node_relu -->
<g id="edge4" class="edge">
<title>node_conv2d-&gt;node_relu</title>
<path fill="none" stroke="black" d="M203.89,-744.38C203.71,-731.58 203.53,-719.06 203.38,-708.5"/>
<polygon fill="black" stroke="black" points="206.89,-708.56 203.25,-698.61 199.89,-708.66 206.89,-708.56"/>
<text xml:space="preserve" text-anchor="middle" x="230.39" y="-717.9" font-family="Helvetica,sans-Serif" font-size="9.00">[?x32x28x28]</text>
</g>
<!-- node_max_pool2d -->
<g id="node6" class="node">
<title>node_max_pool2d</title>
<polygon fill="#e8e8e8" stroke="black" points="139.62,-397.9 139.62,-532.7 260.34,-532.7 260.34,-397.9 139.62,-397.9"/>
<text xml:space="preserve" text-anchor="middle" x="199.98" y="-518.8" font-family="Helvetica,sans-Serif" font-size="11.00">MaxPool</text>
<text xml:space="preserve" text-anchor="middle" x="199.98" y="-505.6" font-family="Helvetica,sans-Serif" font-size="11.00">(node_max_pool2d)</text>
<polyline fill="none" stroke="black" points="139.62,-498.3 260.34,-498.3"/>
<text xml:space="preserve" text-anchor="start" x="147.62" y="-484.4" font-family="Helvetica,sans-Serif" font-size="11.00">auto_pad="NOTSET"</text>
<text xml:space="preserve" text-anchor="start" x="147.62" y="-471.2" font-family="Helvetica,sans-Serif" font-size="11.00">dilations=[1,1]</text>
<text xml:space="preserve" text-anchor="start" x="147.62" y="-458" font-family="Helvetica,sans-Serif" font-size="11.00">strides=[2,2]</text>
<text xml:space="preserve" text-anchor="start" x="147.62" y="-444.8" font-family="Helvetica,sans-Serif" font-size="11.00">kernel_shape=[2,2]</text>
<text xml:space="preserve" text-anchor="start" x="147.62" y="-431.6" font-family="Helvetica,sans-Serif" font-size="11.00">pads=[0,0,0,0]</text>
<text xml:space="preserve" text-anchor="start" x="147.62" y="-418.4" font-family="Helvetica,sans-Serif" font-size="11.00">ceil_mode=0</text>
<text xml:space="preserve" text-anchor="start" x="147.62" y="-405.2" font-family="Helvetica,sans-Serif" font-size="11.00">storage_order=0</text>
</g>
<!-- node_relu&#45;&gt;node_max_pool2d -->
<g id="edge5" class="edge">
<title>node_relu-&gt;node_max_pool2d</title>
<path fill="none" stroke="black" d="M202.73,-660.4C202.37,-635.11 201.68,-586.45 201.08,-544.18"/>
<polygon fill="black" stroke="black" points="204.58,-544.2 200.94,-534.25 197.59,-544.3 204.58,-544.2"/>
<text xml:space="preserve" text-anchor="middle" x="229.17" y="-594" font-family="Helvetica,sans-Serif" font-size="9.00">[?x32x28x28]</text>
</g>
<!-- node_view -->
<g id="node8" class="node">
<title>node_view</title>
<polygon fill="#e8e8e8" stroke="black" points="86.02,-294.5 86.02,-350.1 161.94,-350.1 161.94,-294.5 86.02,-294.5"/>
<text xml:space="preserve" text-anchor="middle" x="123.98" y="-336.2" font-family="Helvetica,sans-Serif" font-size="11.00">Reshape</text>
<text xml:space="preserve" text-anchor="middle" x="123.98" y="-323" font-family="Helvetica,sans-Serif" font-size="11.00">(node_view)</text>
<polyline fill="none" stroke="black" points="86.02,-315.7 161.94,-315.7"/>
<text xml:space="preserve" text-anchor="start" x="94.02" y="-301.8" font-family="Helvetica,sans-Serif" font-size="11.00">allowzero=1</text>
</g>
<!-- node_max_pool2d&#45;&gt;node_view -->
<g id="edge6" class="edge">
<title>node_max_pool2d-&gt;node_view</title>
<path fill="none" stroke="black" d="M163.98,-397.52C157.11,-384.76 150.15,-371.85 144,-360.45"/>
<polygon fill="black" stroke="black" points="147.16,-358.92 139.33,-351.78 140.99,-362.24 147.16,-358.92"/>
<text xml:space="preserve" text-anchor="middle" x="179.71" y="-371.3" font-family="Helvetica,sans-Serif" font-size="9.00">[?x32x14x14]</text>
</g>
<!-- node_Concat_4&#45;&gt;node_view -->
<g id="edge7" class="edge">
<title>node_Concat_4-&gt;node_view</title>
<path fill="none" stroke="black" d="M82.12,-551.33C91.81,-498.57 107.81,-411.41 116.96,-361.52"/>
<polygon fill="black" stroke="black" points="120.39,-362.23 118.75,-351.76 113.51,-360.96 120.39,-362.23"/>
<text xml:space="preserve" text-anchor="middle" x="115.38" y="-462.6" font-family="Helvetica,sans-Serif" font-size="9.00">[2]</text>
</g>
<!-- node_linear -->
<g id="node9" class="node">
<title>node_linear</title>
<polygon fill="#c39bd3" stroke="black" points="47.33,-103.9 47.33,-246.7 200.62,-246.7 200.62,-103.9 47.33,-103.9"/>
<text xml:space="preserve" text-anchor="middle" x="123.98" y="-232.8" font-family="Helvetica,sans-Serif" font-size="11.00">Gemm</text>
<text xml:space="preserve" text-anchor="middle" x="123.98" y="-219.6" font-family="Helvetica,sans-Serif" font-size="11.00">(node_linear)</text>
<polyline fill="none" stroke="black" points="47.33,-212.3 200.62,-212.3"/>
<text xml:space="preserve" text-anchor="start" x="55.33" y="-198.4" font-family="Helvetica,sans-Serif" font-size="11.00">transA=0</text>
<text xml:space="preserve" text-anchor="start" x="55.33" y="-185.2" font-family="Helvetica,sans-Serif" font-size="11.00">alpha=1</text>
<text xml:space="preserve" text-anchor="start" x="55.33" y="-172" font-family="Helvetica,sans-Serif" font-size="11.00">transB=1</text>
<text xml:space="preserve" text-anchor="start" x="55.33" y="-158.8" font-family="Helvetica,sans-Serif" font-size="11.00">beta=1</text>
<polyline fill="none" stroke="black" points="47.33,-151.5 200.62,-151.5"/>
<text xml:space="preserve" text-anchor="start" x="55.33" y="-137.6" font-family="Helvetica,sans-Serif" font-size="11.00">const inputs:</text>
<text xml:space="preserve" text-anchor="start" x="55.33" y="-124.4" font-family="Helvetica,sans-Serif" font-size="11.00">fc.weight = float32[10x6272]</text>
<text xml:space="preserve" text-anchor="start" x="55.33" y="-111.2" font-family="Helvetica,sans-Serif" font-size="11.00">fc.bias = float32[10]</text>
</g>
<!-- node_view&#45;&gt;node_linear -->
<g id="edge8" class="edge">
<title>node_view-&gt;node_linear</title>
<path fill="none" stroke="black" d="M123.98,-294.03C123.98,-283.68 123.98,-271.3 123.98,-258.5"/>
<polygon fill="black" stroke="black" points="127.48,-258.7 123.98,-248.7 120.48,-258.7 127.48,-258.7"/>
<text xml:space="preserve" text-anchor="middle" x="141.24" y="-267.9" font-family="Helvetica,sans-Serif" font-size="9.00">[?x6272]</text>
</g>
<!-- node_linear&#45;&gt;output_output -->
<g id="edge9" class="edge">
<title>node_linear-&gt;output_output</title>
<path fill="none" stroke="black" d="M123.98,-103.5C123.98,-91.15 123.98,-78.73 123.98,-67.68"/>
<polygon fill="black" stroke="black" points="127.48,-67.81 123.98,-57.81 120.48,-67.81 127.48,-67.81"/>
<text xml:space="preserve" text-anchor="middle" x="136.24" y="-77.3" font-family="Helvetica,sans-Serif" font-size="9.00">[?x10]</text>
</g>
</g>
</svg>