<svg xmlns="http://www.w3.org/2000/svg" xmlns:xlink="http://www.w3.org/1999/xlink" width="175pt" height="726pt" viewBox="0.00 0.00 175.00 726.00">
<g id="graph0" class="graph" transform="scale(1 1) rotate(0) translate(4 722.2)">
<title>main_graph</title>
<polygon fill="#fafafa" stroke="none" points="-4,4 -4,-722.2 170.77,-722.2 170.77,4 -4,4"/>
<!-- input_X -->
<g id="node1" class="node">
<title>input_X</title>
<polygon fill="#85c1e9" stroke="black" points="53.84,-662.1 53.84,-717.7 129.16,-717.7 129.16,-662.1 53.84,-662.1"/>
<text xml:space="preserve" text-anchor="middle" x="91.5" y="-703.8" font-family="Helvetica,sans-Serif" font-size="11.00">INPUT</text>
<polyline fill="none" stroke="black" points="53.84,-696.5 129.16,-696.5"/>
<text xml:space="preserve" text-anchor="middle" x="91.5" y="-682.6" font-family="Helvetica,sans-Serif" font-size="11.00">X</text>
<text xml:space="preserve" text-anchor="middle" x="91.5" y="-669.4" font-family="Helvetica,sans-Serif" font-size="11.00">[?x3x32x32]</text>
</g>
<!-- node_Shape_0 -->
<g id="node3" class="node">
<title>node_Shape_0</title>
<polygon fill="#a99bd3" stroke="black" points="3.52,-545.5 3.52,-614.3 101.48,-614.3 101.48,-545.5 3.52,-545.5"/>
<text xml:space="preserve" text-anchor="middle" x="52.5" y="-600.4" font-family="Helvetica,sans-Serif" font-size="11.00">Shape</text>
<text xml:space="preserve" text-anchor="middle" x="52.5" y="-587.2" font-family="Helvetica,sans-Serif" font-size="11.00">(node_Shape_0)</text>
<polyline fill="none" stroke="black" points="3.52,-579.9 101.48,-579.9"/>
<text xml:space="preserve" text-anchor="start" x="11.52" y="-566" font-family="Helvetica,sans-Serif" font-size="11.00">start=0</text>
<text xml:space="preserve" text-anchor="start" x="11.52" y="-552.8" font-family="Helvetica,sans-Serif" font-size="11.00">end=1</text>
</g>
<!-- input_X&#45;&gt;node_Shape_0 -->
<g id="edge1" class="edge">
<title>input_X-&gt;node_Shape_0</title>
<path fill="none" stroke="black" d="M75.23,-661.67C72.18,-655.84 69.25,-649.62 66.97,-643.6 64.79,-637.85 62.89,-631.68 61.23,-625.53"/>
<polygon fill="black" stroke="black" points="64.69,-624.92 58.89,-616.06 57.89,-626.6 64.69,-624.92"/>
<text xml:space="preserve" text-anchor="middle" x="91.23" y="-635.5" font-family="Helvetica,sans-Serif" font-size="9.00">[?x3x32x32]</text>
</g>
<!-- node_view -->
<g id="node5" class="node">
<title>node_view</title>
<polygon fill="#394b43" stroke="black" points="51.54,-304.3 51.54,-359.9 127.46,-359.9 127.46,-304.3 51.54,-304.3"/>
<text xml:space="preserve" text-anchor="middle" x="89.5" y="-346" font-family="Helvetica,sans-Serif" font-size="11.00">Reshape</text>
<text xml:space="preserve" text-anchor="middle" x="89.5" y="-332.8" font-family="Helvetica,sans-Serif" font-size="11.00">(node_view)</text>
<polyline fill="none" stroke="black" points="51.54,-325.5 127.46,-325.5"/>
<text xml:space="preserve" text-anchor="start" x="59.54" y="-311.6" font-family="Helvetica,sans-Serif" font-size="11.00">allowzero=1</text>
</g>
<!-- input_X&#45;&gt;node_view -->
<g id="edge2" class="edge">
<title>input_X-&gt;node_view</title>
<path fill="none" stroke="black" d="M108.48,-661.97C111.38,-656.12 113.96,-649.82 115.5,-643.6 116.66,-638.94 115.55,-637.6 115.5,-632.8 114.39,-532.51 125.41,-506.38 110.5,-407.2 108.71,-395.3 105.59,-382.61 102.28,-371.15"/>
<polygon fill="black" stroke="black" points="105.65,-370.19 99.4,-361.63 98.95,-372.22 105.65,-370.19"/>
<text xml:space="preserve" text-anchor="middle" x="142.5" y="-518.9" font-family="Helvetica,sans-Serif" font-size="9.00">[?x3x32x32]</text>
</g>
<!-- output_Y -->
<g id="node2" class="node">
<title>output_Y</title>
<polygon fill="#82e0aa" stroke="black" points="58.89,-0.5 58.89,-56.1 120.11,-56.1 120.11,-0.5 58.89,-0.5"/>
<text xml:space="preserve" text-anchor="middle" x="89.5" y="-42.2" font-family="Helvetica,sans-Serif" font-size="11.00">OUTPUT</text>
<polyline fill="none" stroke="black" points="58.89,-34.9 120.11,-34.9"/>
<text xml:space="preserve" text-anchor="middle" x="89.5" y="-21" font-family="Helvetica,sans-Serif" font-size="11.00">Y</text>
<text xml:space="preserve" text-anchor="middle" x="89.5" y="-7.8" font-family="Helvetica,sans-Serif" font-size="11.00">[?x3072]</text>
</g>
<!-- node_Concat_4 -->
<g id="node4" class="node">
<title>node_Concat_4</title>
<polygon fill="#a9df1f" stroke="black" points="0,-407.7 0,-497.7 101,-497.7 101,-407.7 0,-407.7"/>
<text xml:space="preserve" text-anchor="middle" x="50.5" y="-483.8" font-family="Helvetica,sans-Serif" font-size="11.00">Concat</text>
<text xml:space="preserve" text-anchor="middle" x="50.5" y="-470.6" font-family="Helvetica,sans-Serif" font-size="11.00">(node_Concat_4)</text>
<polyline fill="none" stroke="black" points="0,-463.3 101,-463.3"/>
<text xml:space="preserve" text-anchor="start" x="8" y="-449.4" font-family="Helvetica,sans-Serif" font-size="11.00">axis=0</text>
<polyline fill="none" stroke="black" points="0,-442.1 101,-442.1"/>
<text xml:space="preserve" text-anchor="start" x="8" y="-428.2" font-family="Helvetica,sans-Serif" font-size="11.00">const inputs:</text>
<text xml:space="preserve" text-anchor="start" x="8" y="-415" font-family="Helvetica,sans-Serif" font-size="11.00">val_3 = int64[1]</text>
</g>
<!-- node_Shape_0&#45;&gt;node_Concat_4 -->
<g id="edge3" class="edge">
<title>node_Shape_0-&gt;node_Concat_4</title>
<path fill="none" stroke="black" d="M51.96,-545.02C51.78,-534.04 51.59,-521.56 51.39,-509.43"/>
<polygon fill="black" stroke="black" points="54.89,-509.42 51.23,-499.48 47.89,-509.54 54.89,-509.42"/>
<text xml:space="preserve" text-anchor="middle" x="56.62" y="-518.9" font-family="Helvetica,sans-Serif" font-size="9.00">[1]</text>
</g>
<!-- node_Concat_4&#45;&gt;node_view -->
<g id="edge4" class="edge">
<title>node_Concat_4-&gt;node_view</title>
<path fill="none" stroke="black" d="M65.13,-407.2C69.07,-395.25 73.28,-382.43 77.08,-370.88"/>
<polygon fill="black" stroke="black" points="80.3,-372.29 80.1,-361.7 73.65,-370.11 80.3,-372.29"/>
<text xml:space="preserve" text-anchor="middle" x="78.5" y="-381.1" font-family="Helvetica,sans-Serif" font-size="9.00">[2]</text>
</g>
<!-- node_add_3 -->
<g id="node6" class="node">
<title>node_add_3</title>
<polygon fill="#f9e79f" stroke="black" points="36.71,-187.7 36.71,-256.5 142.3,-256.5 142.3,-187.7 36.71,-187.7"/>
<text xml:space="preserve" text-anchor="middle" x="89.5" y="-242.6" font-family="Helvetica,sans-Serif" font-size="11.00">Add</text>
<text xml:space="preserve" text-anchor="middle" x="89.5" y="-229.4" font-family="Helvetica,sans-Serif" font-size="11.00">(node_add_3)</text>
<polyline fill="none" stroke="black" points="36.71,-222.1 142.3,-222.1"/>
<text xml:space="preserve" text-anchor="start" x="44.71" y="-208.2" font-family="Helvetica,sans-Serif" font-size="11.00">const inputs:</text>
<text xml:space="preserve" text-anchor="start" x="44.71" y="-195" font-family="Helvetica,sans-Serif" font-size="11.00">bias = float32[1x1]</text>
</g>
<!-- node_view&#45;&gt;node_add_3 -->
<g id="edge5" class="edge">
<title>node_view-&gt;node_add_3</title>
<path fill="none" stroke="black" d="M89.5,-303.85C89.5,-293.05 89.5,-280.34 89.5,-268.25"/>
<polygon fill="black" stroke="black" points="93,-268.43 89.5,-258.43 86,-268.43 93,-268.43"/>
<text xml:space="preserve" text-anchor="middle" x="106.77" y="-277.7" font-family="Helvetica,sans-Serif" font-size="9.00">[?x3072]</text>
</g>
<!-- node_relu -->
<g id="node7" class="node">
<title>node_relu</title>
<polygon fill="#a9dfbf" stroke="black" points="53.37,-103.9 53.37,-139.9 125.63,-139.9 125.63,-103.9 53.37,-103.9"/>
<text xml:space="preserve" text-anchor="middle" x="89.5" y="-125.5" font-family="Helvetica,sans-Serif" font-size="11.00">Relu</text>
<text xml:space="preserve" text-anchor="middle" x="89.5" y="-112.3" font-family="Helvetica,sans-Serif" font-size="11.00">(node_relu)</text>
</g>
<!-- node_add_3&#45;&gt;node_relu -->
<g id="edge6" class="edge">
<title>node_add_3-&gt;node_relu</title>
<path fill="none" stroke="black" d="M89.5,-187.31C89.5,-175.65 89.5,-162.72 89.5,-151.52"/>
<polygon fill="black" stroke="black" points="93,-151.71 89.5,-141.71 86,-151.71 93,-151.71"/>
<text xml:space="preserve" text-anchor="middle" x="106.77" y="-161.1" font-family="Helvetica,sans-Serif" font-size="9.00">[?x3072]</text>
</g>
<!-- node_relu&#45;&gt;output_Y -->
<g id="edge7" class="edge">
<title>node_relu-&gt;output_Y</title>
<path fill="none" stroke="black" d="M89.5,-103.67C89.5,-93.51 89.5,-80.23 89.5,-67.71"/>
<polygon fill="black" stroke="black" points="93,-68.05 89.5,-58.05 86,-68.05 93,-68.05"/>
<text xml:space="preserve" text-anchor="middle" x="106.77" y="-77.3" font-family="Helvetica,sans-Serif" font-size="9.00">[?x3072]</text>
</g>
</g>
</svg>